# xmcd
#
# Track frame offsets:
#	150
#	18899
#	38558
#	60810
#	80236
#	101139
#	125404
#	144198
#	162526
#	178827
#
# Disc length: 2709 seconds
#
# Revision: 0
# Processed by: cddbd v1.5.1PL2 Copyright (c) Steve Scherf et al.
# Submitted via: dBpowerAMP V4.0
#
DISCID=7c0a930a
DTITLE=Lisa Hayes - Sweet Forgiveness
DYEAR=2004
DGENRE=Country
TTITLE0=Hey mr. Morning
TTITLE1=Right Now
TTITLE2=Real Thang
TTITLE3=Love
TTITLE4=Sweet Forgiveness
TTITLE5=Ghosts
TTITLE6=Gone Gone Gone
TTITLE7=Are You Still Mine
TTITLE8=`Cause of Faith
TTITLE9=Where Angels Fear to Go
EXTD=
EXTT0=
EXTT1=
EXTT2=
EXTT3=
EXTT4=
EXTT5=
EXTT6=
EXTT7=
EXTT8=
EXTT9=
PLAYORDER=
